<mxfile host="www.draw.io" modified="2019-10-18T15:03:14.143Z" agent="Mozilla/5.0 (Windows NT 10.0; Win64; x64; rv:69.0) Gecko/20100101 Firefox/69.0" etag="AKliHMTz7Ua3ag2w4kCY" version="12.1.3" type="github" pages="1">
  <diagram id="FINPR5G2HzoAXYaAKj14" name="Page-1">
    <mxGraphModel dx="1057" dy="587" grid="1" gridSize="10" guides="1" tooltips="1" connect="1" arrows="1" fold="1" page="1" pageScale="1" pageWidth="1654" pageHeight="1169" math="0" shadow="0">
      <root>
        <mxCell id="0"/>
        <mxCell id="1" parent="0"/>
        <mxCell id="1oXscA4LE7z4bwvGvyT2-3" value="&lt;&lt;Trabajo&gt;&gt;" style="swimlane;fontStyle=1;align=center;verticalAlign=top;childLayout=stackLayout;horizontal=1;startSize=26;horizontalStack=0;resizeParent=1;resizeParentMax=0;resizeLast=0;collapsible=1;marginBottom=0;" parent="1" vertex="1">
          <mxGeometry x="243" y="10" width="180" height="240" as="geometry"/>
        </mxCell>
        <mxCell id="1oXscA4LE7z4bwvGvyT2-4" value="-id: long&#xa;-fechaSolicitud; Date&#xa;-fechaRecoger; Date&#xa;-relieve; String&#xa;" style="text;strokeColor=none;fillColor=none;align=left;verticalAlign=top;spacingLeft=4;spacingRight=4;overflow=hidden;rotatable=0;points=[[0,0.5],[1,0.5]];portConstraint=eastwest;" parent="1oXscA4LE7z4bwvGvyT2-3" vertex="1">
          <mxGeometry y="26" width="180" height="64" as="geometry"/>
        </mxCell>
        <mxCell id="1oXscA4LE7z4bwvGvyT2-5" value="" style="line;strokeWidth=1;fillColor=none;align=left;verticalAlign=middle;spacingTop=-1;spacingLeft=3;spacingRight=3;rotatable=0;labelPosition=right;points=[];portConstraint=eastwest;" parent="1oXscA4LE7z4bwvGvyT2-3" vertex="1">
          <mxGeometry y="90" width="180" height="8" as="geometry"/>
        </mxCell>
        <mxCell id="1oXscA4LE7z4bwvGvyT2-6" value="+Trabajo(): void&#xa;+Trabajo(long id, Date &#xa;fechaSolicitud, Date &#xa;fechaRecoger, String relieve): &#xa;void&#xa;+Trabajo(Trabajo t): void&#xa;+getters() y setters()&#xa;+toString(): String&#xa;+data(): String" style="text;strokeColor=none;fillColor=none;align=left;verticalAlign=top;spacingLeft=4;spacingRight=4;overflow=hidden;rotatable=0;points=[[0,0.5],[1,0.5]];portConstraint=eastwest;" parent="1oXscA4LE7z4bwvGvyT2-3" vertex="1">
          <mxGeometry y="98" width="180" height="142" as="geometry"/>
        </mxCell>
        <mxCell id="1oXscA4LE7z4bwvGvyT2-8" value="Rotulo" style="swimlane;fontStyle=1;align=center;verticalAlign=top;childLayout=stackLayout;horizontal=1;startSize=26;horizontalStack=0;resizeParent=1;resizeParentMax=0;resizeLast=0;collapsible=1;marginBottom=0;" parent="1" vertex="1">
          <mxGeometry x="10" y="400" width="250" height="200" as="geometry"/>
        </mxCell>
        <mxCell id="1oXscA4LE7z4bwvGvyT2-9" value="-centroComercial: String" style="text;strokeColor=none;fillColor=none;align=left;verticalAlign=top;spacingLeft=4;spacingRight=4;overflow=hidden;rotatable=0;points=[[0,0.5],[1,0.5]];portConstraint=eastwest;" parent="1oXscA4LE7z4bwvGvyT2-8" vertex="1">
          <mxGeometry y="26" width="250" height="26" as="geometry"/>
        </mxCell>
        <mxCell id="1oXscA4LE7z4bwvGvyT2-10" value="" style="line;strokeWidth=1;fillColor=none;align=left;verticalAlign=middle;spacingTop=-1;spacingLeft=3;spacingRight=3;rotatable=0;labelPosition=right;points=[];portConstraint=eastwest;" parent="1oXscA4LE7z4bwvGvyT2-8" vertex="1">
          <mxGeometry y="52" width="250" height="8" as="geometry"/>
        </mxCell>
        <mxCell id="1oXscA4LE7z4bwvGvyT2-11" value="+Rotulo(): void&#xa;+Rotulo(String centroComercial): void&#xa;&#xa;+Rotulo(Rotulo r): void+getters() y setters()&#xa;+toString(): String&#xa;+data(): String" style="text;strokeColor=none;fillColor=none;align=left;verticalAlign=top;spacingLeft=4;spacingRight=4;overflow=hidden;rotatable=0;points=[[0,0.5],[1,0.5]];portConstraint=eastwest;" parent="1oXscA4LE7z4bwvGvyT2-8" vertex="1">
          <mxGeometry y="60" width="250" height="140" as="geometry"/>
        </mxCell>
        <mxCell id="1oXscA4LE7z4bwvGvyT2-12" value="Poster&#xa;" style="swimlane;fontStyle=1;align=center;verticalAlign=top;childLayout=stackLayout;horizontal=1;startSize=26;horizontalStack=0;resizeParent=1;resizeParentMax=0;resizeLast=0;collapsible=1;marginBottom=0;" parent="1" vertex="1">
          <mxGeometry x="320" y="400" width="180" height="200" as="geometry"/>
        </mxCell>
        <mxCell id="1oXscA4LE7z4bwvGvyT2-13" value="-alto: float&#xa;-ancho: float&#xa;-numCopias: int" style="text;strokeColor=none;fillColor=none;align=left;verticalAlign=top;spacingLeft=4;spacingRight=4;overflow=hidden;rotatable=0;points=[[0,0.5],[1,0.5]];portConstraint=eastwest;" parent="1oXscA4LE7z4bwvGvyT2-12" vertex="1">
          <mxGeometry y="26" width="180" height="54" as="geometry"/>
        </mxCell>
        <mxCell id="1oXscA4LE7z4bwvGvyT2-14" value="" style="line;strokeWidth=1;fillColor=none;align=left;verticalAlign=middle;spacingTop=-1;spacingLeft=3;spacingRight=3;rotatable=0;labelPosition=right;points=[];portConstraint=eastwest;" parent="1oXscA4LE7z4bwvGvyT2-12" vertex="1">
          <mxGeometry y="80" width="180" height="8" as="geometry"/>
        </mxCell>
        <mxCell id="1oXscA4LE7z4bwvGvyT2-15" value="+Poster(): void&#xa;+Poster(float ancho, float alto,&#xa;int numCopias): void&#xa;+Poster(Poster p): void&#xa;+getters() y setters()&#xa;+toString(): String&#xa;+data(): String" style="text;strokeColor=none;fillColor=none;align=left;verticalAlign=top;spacingLeft=4;spacingRight=4;overflow=hidden;rotatable=0;points=[[0,0.5],[1,0.5]];portConstraint=eastwest;" parent="1oXscA4LE7z4bwvGvyT2-12" vertex="1">
          <mxGeometry y="88" width="180" height="112" as="geometry"/>
        </mxCell>
        <mxCell id="1oXscA4LE7z4bwvGvyT2-27" value="Cliente" style="swimlane;fontStyle=1;align=center;verticalAlign=top;childLayout=stackLayout;horizontal=1;startSize=26;horizontalStack=0;resizeParent=1;resizeParentMax=0;resizeLast=0;collapsible=1;marginBottom=0;" parent="1" vertex="1">
          <mxGeometry x="17.5" y="10" width="180" height="180" as="geometry"/>
        </mxCell>
        <mxCell id="1oXscA4LE7z4bwvGvyT2-31" value="-nombre: String&#xa;-telefono: String" style="text;strokeColor=none;fillColor=none;align=left;verticalAlign=top;spacingLeft=4;spacingRight=4;overflow=hidden;rotatable=0;points=[[0,0.5],[1,0.5]];portConstraint=eastwest;" parent="1oXscA4LE7z4bwvGvyT2-27" vertex="1">
          <mxGeometry y="26" width="180" height="34" as="geometry"/>
        </mxCell>
        <mxCell id="1oXscA4LE7z4bwvGvyT2-29" value="" style="line;strokeWidth=1;fillColor=none;align=left;verticalAlign=middle;spacingTop=-1;spacingLeft=3;spacingRight=3;rotatable=0;labelPosition=right;points=[];portConstraint=eastwest;" parent="1oXscA4LE7z4bwvGvyT2-27" vertex="1">
          <mxGeometry y="60" width="180" height="8" as="geometry"/>
        </mxCell>
        <mxCell id="1oXscA4LE7z4bwvGvyT2-30" value="+Cliente(): void&#xa;+Cliente(String nombre, &#xa;String telefono)&#xa;+Cliente(Cliente c)&#xa;+getters() y setters()&#xa;+toString(): String&#xa;+data(): String" style="text;strokeColor=none;fillColor=none;align=left;verticalAlign=top;spacingLeft=4;spacingRight=4;overflow=hidden;rotatable=0;points=[[0,0.5],[1,0.5]];portConstraint=eastwest;" parent="1oXscA4LE7z4bwvGvyT2-27" vertex="1">
          <mxGeometry y="68" width="180" height="112" as="geometry"/>
        </mxCell>
        <mxCell id="1oXscA4LE7z4bwvGvyT2-33" value="Máquina" style="swimlane;fontStyle=1;align=center;verticalAlign=top;childLayout=stackLayout;horizontal=1;startSize=26;horizontalStack=0;resizeParent=1;resizeParentMax=0;resizeLast=0;collapsible=1;marginBottom=0;" parent="1" vertex="1">
          <mxGeometry x="470" y="9.899993896484375" width="185" height="280" as="geometry"/>
        </mxCell>
        <mxCell id="1oXscA4LE7z4bwvGvyT2-34" value="-id: long&#xa;-fechaCompra: Date&#xa;-ubicacion: String&#xa;-imprTipo:String&#xa;-imprModo: String&#xa;-volTinta: float&#xa;-capMax: float&#xa;&#xa;&#xa;" style="text;strokeColor=none;fillColor=none;align=left;verticalAlign=top;spacingLeft=4;spacingRight=4;overflow=hidden;rotatable=0;points=[[0,0.5],[1,0.5]];portConstraint=eastwest;" parent="1oXscA4LE7z4bwvGvyT2-33" vertex="1">
          <mxGeometry y="26" width="185" height="114" as="geometry"/>
        </mxCell>
        <mxCell id="1oXscA4LE7z4bwvGvyT2-35" value="" style="line;strokeWidth=1;fillColor=none;align=left;verticalAlign=middle;spacingTop=-1;spacingLeft=3;spacingRight=3;rotatable=0;labelPosition=right;points=[];portConstraint=eastwest;" parent="1oXscA4LE7z4bwvGvyT2-33" vertex="1">
          <mxGeometry y="140" width="185" height="8" as="geometry"/>
        </mxCell>
        <mxCell id="1oXscA4LE7z4bwvGvyT2-36" value="+Maquina(): void&#xa;+Maquina(long id, Date &#xa;fechaCompra, String loc, String &#xa;imprTipo, String imprModo, &#xa;float volTinta, float capMax): void&#xa;+Maquina(Maquina m): void&#xa;+getters() y setters()&#xa;+toString(): String&#xa;+data(): String" style="text;strokeColor=none;fillColor=none;align=left;verticalAlign=top;spacingLeft=4;spacingRight=4;overflow=hidden;rotatable=0;points=[[0,0.5],[1,0.5]];portConstraint=eastwest;" parent="1oXscA4LE7z4bwvGvyT2-33" vertex="1">
          <mxGeometry y="148" width="185" height="132" as="geometry"/>
        </mxCell>
        <mxCell id="1oXscA4LE7z4bwvGvyT2-38" value="Lote" style="swimlane;fontStyle=1;align=center;verticalAlign=top;childLayout=stackLayout;horizontal=1;startSize=26;horizontalStack=0;resizeParent=1;resizeParentMax=0;resizeLast=0;collapsible=1;marginBottom=0;" parent="1" vertex="1">
          <mxGeometry x="719.7999877929688" y="10" width="185" height="200" as="geometry"/>
        </mxCell>
        <mxCell id="1oXscA4LE7z4bwvGvyT2-39" value="-nom: String&#xa;-depart: char&#xa;-listaMaq: Maquina[]" style="text;strokeColor=none;fillColor=none;align=left;verticalAlign=top;spacingLeft=4;spacingRight=4;overflow=hidden;rotatable=0;points=[[0,0.5],[1,0.5]];portConstraint=eastwest;" parent="1oXscA4LE7z4bwvGvyT2-38" vertex="1">
          <mxGeometry y="26" width="185" height="54" as="geometry"/>
        </mxCell>
        <mxCell id="1oXscA4LE7z4bwvGvyT2-40" value="" style="line;strokeWidth=1;fillColor=none;align=left;verticalAlign=middle;spacingTop=-1;spacingLeft=3;spacingRight=3;rotatable=0;labelPosition=right;points=[];portConstraint=eastwest;" parent="1oXscA4LE7z4bwvGvyT2-38" vertex="1">
          <mxGeometry y="80" width="185" height="8" as="geometry"/>
        </mxCell>
        <mxCell id="1oXscA4LE7z4bwvGvyT2-41" value="+Lote(): void&#xa;+Lote(String nom, char depart,&#xa;Maquina[] listaMaq): void&#xa;+Lote(Lote l): void&#xa;+getters() y setters()&#xa;+toString(): String&#xa;+data(): String" style="text;strokeColor=none;fillColor=none;align=left;verticalAlign=top;spacingLeft=4;spacingRight=4;overflow=hidden;rotatable=0;points=[[0,0.5],[1,0.5]];portConstraint=eastwest;" parent="1oXscA4LE7z4bwvGvyT2-38" vertex="1">
          <mxGeometry y="88" width="185" height="112" as="geometry"/>
        </mxCell>
        <mxCell id="B73v2lXdH34x8dakDg6a-5" value="Libro" style="swimlane;fontStyle=1;align=center;verticalAlign=top;childLayout=stackLayout;horizontal=1;startSize=26;horizontalStack=0;resizeParent=1;resizeParentMax=0;resizeLast=0;collapsible=1;marginBottom=0;" parent="1" vertex="1">
          <mxGeometry x="530" y="400.0999755859375" width="180" height="190" as="geometry"/>
        </mxCell>
        <mxCell id="B73v2lXdH34x8dakDg6a-6" value="-numPag: int&#xa;-color: String" style="text;strokeColor=none;fillColor=none;align=left;verticalAlign=top;spacingLeft=4;spacingRight=4;overflow=hidden;rotatable=0;points=[[0,0.5],[1,0.5]];portConstraint=eastwest;" parent="B73v2lXdH34x8dakDg6a-5" vertex="1">
          <mxGeometry y="26" width="180" height="44" as="geometry"/>
        </mxCell>
        <mxCell id="B73v2lXdH34x8dakDg6a-7" value="" style="line;strokeWidth=1;fillColor=none;align=left;verticalAlign=middle;spacingTop=-1;spacingLeft=3;spacingRight=3;rotatable=0;labelPosition=right;points=[];portConstraint=eastwest;" parent="B73v2lXdH34x8dakDg6a-5" vertex="1">
          <mxGeometry y="70" width="180" height="8" as="geometry"/>
        </mxCell>
        <mxCell id="B73v2lXdH34x8dakDg6a-8" value="+Libro(): void&#xa;+Libro(int numPag, &#xa;String color): void&#xa;+Libro(Libro l): void&#xa;+getters() y setters()&#xa;+toString(): String&#xa;+data(): String" style="text;strokeColor=none;fillColor=none;align=left;verticalAlign=top;spacingLeft=4;spacingRight=4;overflow=hidden;rotatable=0;points=[[0,0.5],[1,0.5]];portConstraint=eastwest;" parent="B73v2lXdH34x8dakDg6a-5" vertex="1">
          <mxGeometry y="78" width="180" height="112" as="geometry"/>
        </mxCell>
        <mxCell id="B73v2lXdH34x8dakDg6a-9" value="Departamento" style="swimlane;fontStyle=1;align=center;verticalAlign=top;childLayout=stackLayout;horizontal=1;startSize=26;horizontalStack=0;resizeParent=1;resizeParentMax=0;resizeLast=0;collapsible=1;marginBottom=0;" parent="1" vertex="1">
          <mxGeometry x="960" y="9.800018310546875" width="190" height="180" as="geometry"/>
        </mxCell>
        <mxCell id="B73v2lXdH34x8dakDg6a-10" value="-letraDep: char" style="text;strokeColor=none;fillColor=none;align=left;verticalAlign=top;spacingLeft=4;spacingRight=4;overflow=hidden;rotatable=0;points=[[0,0.5],[1,0.5]];portConstraint=eastwest;" parent="B73v2lXdH34x8dakDg6a-9" vertex="1">
          <mxGeometry y="26" width="190" height="24" as="geometry"/>
        </mxCell>
        <mxCell id="B73v2lXdH34x8dakDg6a-11" value="" style="line;strokeWidth=1;fillColor=none;align=left;verticalAlign=middle;spacingTop=-1;spacingLeft=3;spacingRight=3;rotatable=0;labelPosition=right;points=[];portConstraint=eastwest;" parent="B73v2lXdH34x8dakDg6a-9" vertex="1">
          <mxGeometry y="50" width="190" height="8" as="geometry"/>
        </mxCell>
        <mxCell id="B73v2lXdH34x8dakDg6a-12" value="+Departamento(): void&#xa;+Departamento(char letraDep):&#xa;void&#xa;+Departamento(Departamento d):&#xa;void&#xa;+getters() y setters()&#xa;+toString: String&#xa;+data: String" style="text;strokeColor=none;fillColor=none;align=left;verticalAlign=top;spacingLeft=4;spacingRight=4;overflow=hidden;rotatable=0;points=[[0,0.5],[1,0.5]];portConstraint=eastwest;" parent="B73v2lXdH34x8dakDg6a-9" vertex="1">
          <mxGeometry y="58" width="190" height="122" as="geometry"/>
        </mxCell>
        <mxCell id="B73v2lXdH34x8dakDg6a-13" value="&lt;&lt;Operario&gt;&gt;" style="swimlane;fontStyle=1;align=center;verticalAlign=top;childLayout=stackLayout;horizontal=1;startSize=26;horizontalStack=0;resizeParent=1;resizeParentMax=0;resizeLast=0;collapsible=1;marginBottom=0;" parent="1" vertex="1">
          <mxGeometry x="1209.2000732421875" y="10" width="180" height="260" as="geometry"/>
        </mxCell>
        <mxCell id="B73v2lXdH34x8dakDg6a-14" value="-nombre: String&#xa;-apellidos: String&#xa;-nif: String&#xa;-telefono: String&#xa;-direccion: String&#xa;-senior: boolean" style="text;strokeColor=none;fillColor=none;align=left;verticalAlign=top;spacingLeft=4;spacingRight=4;overflow=hidden;rotatable=0;points=[[0,0.5],[1,0.5]];portConstraint=eastwest;" parent="B73v2lXdH34x8dakDg6a-13" vertex="1">
          <mxGeometry y="26" width="180" height="94" as="geometry"/>
        </mxCell>
        <mxCell id="B73v2lXdH34x8dakDg6a-15" value="" style="line;strokeWidth=1;fillColor=none;align=left;verticalAlign=middle;spacingTop=-1;spacingLeft=3;spacingRight=3;rotatable=0;labelPosition=right;points=[];portConstraint=eastwest;" parent="B73v2lXdH34x8dakDg6a-13" vertex="1">
          <mxGeometry y="120" width="180" height="8" as="geometry"/>
        </mxCell>
        <mxCell id="B73v2lXdH34x8dakDg6a-16" value="+Operario(): void&#xa;+Operario(String nombre, &#xa;String apellidos, String nif, String&#xa;String telefono, String direccion,&#xa;boolean senior): void&#xa;+Operario(Operario o): void&#xa;+getters() y setters()&#xa;+toString: String&#xa;+data: String" style="text;strokeColor=none;fillColor=none;align=left;verticalAlign=top;spacingLeft=4;spacingRight=4;overflow=hidden;rotatable=0;points=[[0,0.5],[1,0.5]];portConstraint=eastwest;" parent="B73v2lXdH34x8dakDg6a-13" vertex="1">
          <mxGeometry y="128" width="180" height="132" as="geometry"/>
        </mxCell>
        <mxCell id="B73v2lXdH34x8dakDg6a-17" value="OperarioImpresion" style="swimlane;fontStyle=1;align=center;verticalAlign=top;childLayout=stackLayout;horizontal=1;startSize=26;horizontalStack=0;resizeParent=1;resizeParentMax=0;resizeLast=0;collapsible=1;marginBottom=0;" parent="1" vertex="1">
          <mxGeometry x="959.800048828125" y="330" width="180" height="180" as="geometry"/>
        </mxCell>
        <mxCell id="B73v2lXdH34x8dakDg6a-18" value="-operario: Operario" style="text;strokeColor=none;fillColor=none;align=left;verticalAlign=top;spacingLeft=4;spacingRight=4;overflow=hidden;rotatable=0;points=[[0,0.5],[1,0.5]];portConstraint=eastwest;" parent="B73v2lXdH34x8dakDg6a-17" vertex="1">
          <mxGeometry y="26" width="180" height="24" as="geometry"/>
        </mxCell>
        <mxCell id="B73v2lXdH34x8dakDg6a-19" value="" style="line;strokeWidth=1;fillColor=none;align=left;verticalAlign=middle;spacingTop=-1;spacingLeft=3;spacingRight=3;rotatable=0;labelPosition=right;points=[];portConstraint=eastwest;" parent="B73v2lXdH34x8dakDg6a-17" vertex="1">
          <mxGeometry y="50" width="180" height="8" as="geometry"/>
        </mxCell>
        <mxCell id="B73v2lXdH34x8dakDg6a-20" value="+OperarioImpresion(): void&#xa;+OperarioImpresion&#xa;(Operario operario): void&#xa;+OperarioImpresion&#xa;(OperarioImpresion o): void&#xa;+getters() y setters()&#xa;+toString(): String&#xa;+data: String" style="text;strokeColor=none;fillColor=none;align=left;verticalAlign=top;spacingLeft=4;spacingRight=4;overflow=hidden;rotatable=0;points=[[0,0.5],[1,0.5]];portConstraint=eastwest;" parent="B73v2lXdH34x8dakDg6a-17" vertex="1">
          <mxGeometry y="58" width="180" height="122" as="geometry"/>
        </mxCell>
        <mxCell id="B73v2lXdH34x8dakDg6a-22" value="OperarioMaquinas" style="swimlane;fontStyle=1;align=center;verticalAlign=top;childLayout=stackLayout;horizontal=1;startSize=26;horizontalStack=0;resizeParent=1;resizeParentMax=0;resizeLast=0;collapsible=1;marginBottom=0;" parent="1" vertex="1">
          <mxGeometry x="1209.699951171875" y="330" width="180" height="180" as="geometry"/>
        </mxCell>
        <mxCell id="B73v2lXdH34x8dakDg6a-23" value="-operario: Operario" style="text;strokeColor=none;fillColor=none;align=left;verticalAlign=top;spacingLeft=4;spacingRight=4;overflow=hidden;rotatable=0;points=[[0,0.5],[1,0.5]];portConstraint=eastwest;" parent="B73v2lXdH34x8dakDg6a-22" vertex="1">
          <mxGeometry y="26" width="180" height="24" as="geometry"/>
        </mxCell>
        <mxCell id="B73v2lXdH34x8dakDg6a-24" value="" style="line;strokeWidth=1;fillColor=none;align=left;verticalAlign=middle;spacingTop=-1;spacingLeft=3;spacingRight=3;rotatable=0;labelPosition=right;points=[];portConstraint=eastwest;" parent="B73v2lXdH34x8dakDg6a-22" vertex="1">
          <mxGeometry y="50" width="180" height="8" as="geometry"/>
        </mxCell>
        <mxCell id="B73v2lXdH34x8dakDg6a-25" value="+OperarioMaquinas(): void&#xa;+OperarioMaquinas&#xa;(Operario operario): void&#xa;+OperarioMaquinas&#xa;(OperarioMaquinas o): void&#xa;+getters() y setters()&#xa;+toString(): String&#xa;+data: String" style="text;strokeColor=none;fillColor=none;align=left;verticalAlign=top;spacingLeft=4;spacingRight=4;overflow=hidden;rotatable=0;points=[[0,0.5],[1,0.5]];portConstraint=eastwest;" parent="B73v2lXdH34x8dakDg6a-22" vertex="1">
          <mxGeometry y="58" width="180" height="122" as="geometry"/>
        </mxCell>
        <mxCell id="B73v2lXdH34x8dakDg6a-26" value="OperarioCalidad" style="swimlane;fontStyle=1;align=center;verticalAlign=top;childLayout=stackLayout;horizontal=1;startSize=26;horizontalStack=0;resizeParent=1;resizeParentMax=0;resizeLast=0;collapsible=1;marginBottom=0;" parent="1" vertex="1">
          <mxGeometry x="1460" y="330" width="180" height="180" as="geometry"/>
        </mxCell>
        <mxCell id="B73v2lXdH34x8dakDg6a-27" value="-operario: Operario" style="text;strokeColor=none;fillColor=none;align=left;verticalAlign=top;spacingLeft=4;spacingRight=4;overflow=hidden;rotatable=0;points=[[0,0.5],[1,0.5]];portConstraint=eastwest;" parent="B73v2lXdH34x8dakDg6a-26" vertex="1">
          <mxGeometry y="26" width="180" height="24" as="geometry"/>
        </mxCell>
        <mxCell id="B73v2lXdH34x8dakDg6a-28" value="" style="line;strokeWidth=1;fillColor=none;align=left;verticalAlign=middle;spacingTop=-1;spacingLeft=3;spacingRight=3;rotatable=0;labelPosition=right;points=[];portConstraint=eastwest;" parent="B73v2lXdH34x8dakDg6a-26" vertex="1">
          <mxGeometry y="50" width="180" height="8" as="geometry"/>
        </mxCell>
        <mxCell id="B73v2lXdH34x8dakDg6a-29" value="+OperarioCalidad(): void&#xa;+OperarioCalidad&#xa;(Operario operario): void&#xa;+OperarioCalidad&#xa;(OperarioCalidad o): void&#xa;+getters() y setters()&#xa;+toString(): String&#xa;+data: String" style="text;strokeColor=none;fillColor=none;align=left;verticalAlign=top;spacingLeft=4;spacingRight=4;overflow=hidden;rotatable=0;points=[[0,0.5],[1,0.5]];portConstraint=eastwest;" parent="B73v2lXdH34x8dakDg6a-26" vertex="1">
          <mxGeometry y="58" width="180" height="122" as="geometry"/>
        </mxCell>
        <mxCell id="B73v2lXdH34x8dakDg6a-30" value="Labor" style="swimlane;fontStyle=1;align=center;verticalAlign=top;childLayout=stackLayout;horizontal=1;startSize=26;horizontalStack=0;resizeParent=1;resizeParentMax=0;resizeLast=0;collapsible=1;marginBottom=0;" parent="1" vertex="1">
          <mxGeometry x="1209.300048828125" y="614" width="180" height="250" as="geometry"/>
        </mxCell>
        <mxCell id="B73v2lXdH34x8dakDg6a-31" value="-id: long&#xa;-fecha: Date&#xa;-tarea: String&#xa;-maquina: Maquina&#xa;-operaro: OperarioMaquinas" style="text;strokeColor=none;fillColor=none;align=left;verticalAlign=top;spacingLeft=4;spacingRight=4;overflow=hidden;rotatable=0;points=[[0,0.5],[1,0.5]];portConstraint=eastwest;" parent="B73v2lXdH34x8dakDg6a-30" vertex="1">
          <mxGeometry y="26" width="180" height="84" as="geometry"/>
        </mxCell>
        <mxCell id="B73v2lXdH34x8dakDg6a-32" value="" style="line;strokeWidth=1;fillColor=none;align=left;verticalAlign=middle;spacingTop=-1;spacingLeft=3;spacingRight=3;rotatable=0;labelPosition=right;points=[];portConstraint=eastwest;" parent="B73v2lXdH34x8dakDg6a-30" vertex="1">
          <mxGeometry y="110" width="180" height="8" as="geometry"/>
        </mxCell>
        <mxCell id="B73v2lXdH34x8dakDg6a-33" value="+Labor(): void&#xa;+Labor(long id, Date fecha,&#xa;String tarea, Maquina &#xa;maquina, OperarioMaquinas &#xa;operario): void&#xa;+Labor(Labor l): void&#xa;+getters() y setters()&#xa;+toString: String&#xa;+data: String" style="text;strokeColor=none;fillColor=none;align=left;verticalAlign=top;spacingLeft=4;spacingRight=4;overflow=hidden;rotatable=0;points=[[0,0.5],[1,0.5]];portConstraint=eastwest;" parent="B73v2lXdH34x8dakDg6a-30" vertex="1">
          <mxGeometry y="118" width="180" height="132" as="geometry"/>
        </mxCell>
        <mxCell id="B73v2lXdH34x8dakDg6a-34" value="Modificacion" style="swimlane;fontStyle=1;align=center;verticalAlign=top;childLayout=stackLayout;horizontal=1;startSize=26;horizontalStack=0;resizeParent=1;resizeParentMax=0;resizeLast=0;collapsible=1;marginBottom=0;" parent="1" vertex="1">
          <mxGeometry x="959.60009765625" y="613.7999877929688" width="180" height="280" as="geometry"/>
        </mxCell>
        <mxCell id="B73v2lXdH34x8dakDg6a-35" value="-id: long&#xa;-fecha: Date&#xa;-desc: String&#xa;-aprob: boolean&#xa;-fechaAprob: Date&#xa;-operario: OperarioImpresion" style="text;strokeColor=none;fillColor=none;align=left;verticalAlign=top;spacingLeft=4;spacingRight=4;overflow=hidden;rotatable=0;points=[[0,0.5],[1,0.5]];portConstraint=eastwest;" parent="B73v2lXdH34x8dakDg6a-34" vertex="1">
          <mxGeometry y="26" width="180" height="94" as="geometry"/>
        </mxCell>
        <mxCell id="B73v2lXdH34x8dakDg6a-36" value="" style="line;strokeWidth=1;fillColor=none;align=left;verticalAlign=middle;spacingTop=-1;spacingLeft=3;spacingRight=3;rotatable=0;labelPosition=right;points=[];portConstraint=eastwest;" parent="B73v2lXdH34x8dakDg6a-34" vertex="1">
          <mxGeometry y="120" width="180" height="8" as="geometry"/>
        </mxCell>
        <mxCell id="B73v2lXdH34x8dakDg6a-37" value="+Modificacion(): void&#xa;+Modificacion(long id, Date &#xa;fecha, String desc, Date &#xa;fechaAprob, OperarioImpresion&#xa;operario, boolean aprob): void&#xa;+Modificacion(Modificacion m):&#xa;void&#xa;+getters() y setters()&#xa;+toString(): String&#xa;+data(): String" style="text;strokeColor=none;fillColor=none;align=left;verticalAlign=top;spacingLeft=4;spacingRight=4;overflow=hidden;rotatable=0;points=[[0,0.5],[1,0.5]];portConstraint=eastwest;" parent="B73v2lXdH34x8dakDg6a-34" vertex="1">
          <mxGeometry y="128" width="180" height="152" as="geometry"/>
        </mxCell>
        <mxCell id="B73v2lXdH34x8dakDg6a-38" value="PoliticaCalidad" style="swimlane;fontStyle=1;align=center;verticalAlign=top;childLayout=stackLayout;horizontal=1;startSize=26;horizontalStack=0;resizeParent=1;resizeParentMax=0;resizeLast=0;collapsible=1;marginBottom=0;" parent="1" vertex="1">
          <mxGeometry x="1459.800048828125" y="614" width="180" height="220" as="geometry"/>
        </mxCell>
        <mxCell id="B73v2lXdH34x8dakDg6a-39" value="-nom: String&#xa;-fechaIni: Date&#xa;-firma1: boolean&#xa;-firma2: boolean" style="text;strokeColor=none;fillColor=none;align=left;verticalAlign=top;spacingLeft=4;spacingRight=4;overflow=hidden;rotatable=0;points=[[0,0.5],[1,0.5]];portConstraint=eastwest;" parent="B73v2lXdH34x8dakDg6a-38" vertex="1">
          <mxGeometry y="26" width="180" height="64" as="geometry"/>
        </mxCell>
        <mxCell id="B73v2lXdH34x8dakDg6a-40" value="" style="line;strokeWidth=1;fillColor=none;align=left;verticalAlign=middle;spacingTop=-1;spacingLeft=3;spacingRight=3;rotatable=0;labelPosition=right;points=[];portConstraint=eastwest;" parent="B73v2lXdH34x8dakDg6a-38" vertex="1">
          <mxGeometry y="90" width="180" height="8" as="geometry"/>
        </mxCell>
        <mxCell id="B73v2lXdH34x8dakDg6a-41" value="+Politica(): void&#xa;+Politica(String nom, Date &#xa;fechaIni, boolean firma1,&#xa;boolean firma2): void&#xa;+Politica(Politica p): void&#xa;+getters() y setters()&#xa;+toString: String&#xa;+data: String " style="text;strokeColor=none;fillColor=none;align=left;verticalAlign=top;spacingLeft=4;spacingRight=4;overflow=hidden;rotatable=0;points=[[0,0.5],[1,0.5]];portConstraint=eastwest;" parent="B73v2lXdH34x8dakDg6a-38" vertex="1">
          <mxGeometry y="98" width="180" height="122" as="geometry"/>
        </mxCell>
        <mxCell id="B73v2lXdH34x8dakDg6a-47" value="" style="endArrow=none;html=1;entryX=0.491;entryY=1.007;entryDx=0;entryDy=0;entryPerimeter=0;" parent="1" target="1oXscA4LE7z4bwvGvyT2-6" edge="1" source="N2AzNSkG_Cx-DgtH7He0-8">
          <mxGeometry width="50" height="50" relative="1" as="geometry">
            <mxPoint x="332" y="360" as="sourcePoint"/>
            <mxPoint x="60" y="780" as="targetPoint"/>
          </mxGeometry>
        </mxCell>
        <mxCell id="B73v2lXdH34x8dakDg6a-48" value="" style="endArrow=none;html=1;" parent="1" edge="1">
          <mxGeometry width="50" height="50" relative="1" as="geometry">
            <mxPoint x="640" y="360" as="sourcePoint"/>
            <mxPoint x="135" y="360" as="targetPoint"/>
          </mxGeometry>
        </mxCell>
        <mxCell id="B73v2lXdH34x8dakDg6a-56" value="" style="endArrow=none;html=1;" parent="1" edge="1">
          <mxGeometry width="50" height="50" relative="1" as="geometry">
            <mxPoint x="1029.5" y="289" as="sourcePoint"/>
            <mxPoint x="1539.5" y="289" as="targetPoint"/>
          </mxGeometry>
        </mxCell>
        <mxCell id="B73v2lXdH34x8dakDg6a-57" value="" style="endArrow=none;html=1;" parent="1" target="B73v2lXdH34x8dakDg6a-16" edge="1" source="N2AzNSkG_Cx-DgtH7He0-10">
          <mxGeometry width="50" height="50" relative="1" as="geometry">
            <mxPoint x="1299" y="290" as="sourcePoint"/>
            <mxPoint x="1576" y="300" as="targetPoint"/>
          </mxGeometry>
        </mxCell>
        <mxCell id="N2AzNSkG_Cx-DgtH7He0-5" value="" style="endArrow=none;html=1;" edge="1" parent="1" source="1oXscA4LE7z4bwvGvyT2-8">
          <mxGeometry width="50" height="50" relative="1" as="geometry">
            <mxPoint x="57.5" y="410" as="sourcePoint"/>
            <mxPoint x="135" y="360" as="targetPoint"/>
          </mxGeometry>
        </mxCell>
        <mxCell id="N2AzNSkG_Cx-DgtH7He0-6" value="" style="endArrow=none;html=1;" edge="1" parent="1">
          <mxGeometry width="50" height="50" relative="1" as="geometry">
            <mxPoint x="410" y="400" as="sourcePoint"/>
            <mxPoint x="410" y="360" as="targetPoint"/>
          </mxGeometry>
        </mxCell>
        <mxCell id="N2AzNSkG_Cx-DgtH7He0-7" value="" style="endArrow=none;html=1;" edge="1" parent="1">
          <mxGeometry width="50" height="50" relative="1" as="geometry">
            <mxPoint x="640" y="400" as="sourcePoint"/>
            <mxPoint x="640" y="360" as="targetPoint"/>
          </mxGeometry>
        </mxCell>
        <mxCell id="N2AzNSkG_Cx-DgtH7He0-8" value="" style="triangle;whiteSpace=wrap;html=1;rotation=-91;" vertex="1" parent="1">
          <mxGeometry x="313" y="233" width="40" height="70" as="geometry"/>
        </mxCell>
        <mxCell id="N2AzNSkG_Cx-DgtH7He0-9" value="" style="endArrow=none;html=1;entryX=0;entryY=0.5;entryDx=0;entryDy=0;" edge="1" parent="1" target="N2AzNSkG_Cx-DgtH7He0-8">
          <mxGeometry width="50" height="50" relative="1" as="geometry">
            <mxPoint x="332" y="360" as="sourcePoint"/>
            <mxPoint x="331.3800000000001" y="250.99399999999991" as="targetPoint"/>
          </mxGeometry>
        </mxCell>
        <mxCell id="N2AzNSkG_Cx-DgtH7He0-13" value="" style="endArrow=none;html=1;exitX=0.43;exitY=-0.007;exitDx=0;exitDy=0;exitPerimeter=0;" edge="1" parent="1" source="B73v2lXdH34x8dakDg6a-17">
          <mxGeometry width="50" height="50" relative="1" as="geometry">
            <mxPoint x="1049.5" y="319.7857142857143" as="sourcePoint"/>
            <mxPoint x="1037" y="290" as="targetPoint"/>
          </mxGeometry>
        </mxCell>
        <mxCell id="N2AzNSkG_Cx-DgtH7He0-14" value="" style="endArrow=none;html=1;exitX=0.5;exitY=0;exitDx=0;exitDy=0;entryX=0;entryY=0.5;entryDx=0;entryDy=0;" edge="1" parent="1" source="B73v2lXdH34x8dakDg6a-22" target="N2AzNSkG_Cx-DgtH7He0-10">
          <mxGeometry width="50" height="50" relative="1" as="geometry">
            <mxPoint x="880" y="970" as="sourcePoint"/>
            <mxPoint x="1300" y="287.14285714285717" as="targetPoint"/>
          </mxGeometry>
        </mxCell>
        <mxCell id="N2AzNSkG_Cx-DgtH7He0-15" value="" style="endArrow=none;html=1;" edge="1" parent="1">
          <mxGeometry width="50" height="50" relative="1" as="geometry">
            <mxPoint x="1560" y="330" as="sourcePoint"/>
            <mxPoint x="1560" y="290" as="targetPoint"/>
          </mxGeometry>
        </mxCell>
        <mxCell id="N2AzNSkG_Cx-DgtH7He0-10" value="" style="triangle;whiteSpace=wrap;html=1;rotation=-91;" vertex="1" parent="1">
          <mxGeometry x="1284.5" y="240" width="29" height="77" as="geometry"/>
        </mxCell>
        <mxCell id="N2AzNSkG_Cx-DgtH7He0-16" value="" style="endArrow=none;html=1;" edge="1" parent="1" target="N2AzNSkG_Cx-DgtH7He0-10">
          <mxGeometry width="50" height="50" relative="1" as="geometry">
            <mxPoint x="1299" y="290" as="sourcePoint"/>
            <mxPoint x="1299.0465286609738" y="270" as="targetPoint"/>
          </mxGeometry>
        </mxCell>
        <mxCell id="N2AzNSkG_Cx-DgtH7He0-19" value="" style="endArrow=none;html=1;entryX=0.51;entryY=1.036;entryDx=0;entryDy=0;entryPerimeter=0;exitX=0.5;exitY=0;exitDx=0;exitDy=0;" edge="1" parent="1" source="B73v2lXdH34x8dakDg6a-34" target="B73v2lXdH34x8dakDg6a-20">
          <mxGeometry width="50" height="50" relative="1" as="geometry">
            <mxPoint x="650" y="970" as="sourcePoint"/>
            <mxPoint x="700" y="920" as="targetPoint"/>
          </mxGeometry>
        </mxCell>
        <mxCell id="N2AzNSkG_Cx-DgtH7He0-20" value="" style="endArrow=none;html=1;entryX=0.51;entryY=1.036;entryDx=0;entryDy=0;entryPerimeter=0;exitX=0.5;exitY=0;exitDx=0;exitDy=0;" edge="1" parent="1">
          <mxGeometry width="50" height="50" relative="1" as="geometry">
            <mxPoint x="1299" y="609.5" as="sourcePoint"/>
            <mxPoint x="1300.9999511718752" y="510.0920122070313" as="targetPoint"/>
          </mxGeometry>
        </mxCell>
        <mxCell id="N2AzNSkG_Cx-DgtH7He0-21" value="" style="endArrow=none;html=1;entryX=0.51;entryY=1.036;entryDx=0;entryDy=0;entryPerimeter=0;exitX=0.5;exitY=0;exitDx=0;exitDy=0;" edge="1" parent="1">
          <mxGeometry width="50" height="50" relative="1" as="geometry">
            <mxPoint x="1550" y="609.5" as="sourcePoint"/>
            <mxPoint x="1551.9999511718752" y="510.0920122070313" as="targetPoint"/>
          </mxGeometry>
        </mxCell>
        <mxCell id="N2AzNSkG_Cx-DgtH7He0-23" value="" style="endArrow=none;html=1;exitX=1;exitY=0.5;exitDx=0;exitDy=0;" edge="1" parent="1" source="1oXscA4LE7z4bwvGvyT2-31">
          <mxGeometry width="50" height="50" relative="1" as="geometry">
            <mxPoint x="220" y="110" as="sourcePoint"/>
            <mxPoint x="243" y="50" as="targetPoint"/>
          </mxGeometry>
        </mxCell>
        <mxCell id="N2AzNSkG_Cx-DgtH7He0-25" value="" style="endArrow=none;html=1;" edge="1" parent="1">
          <mxGeometry width="50" height="50" relative="1" as="geometry">
            <mxPoint x="10" y="970" as="sourcePoint"/>
            <mxPoint x="60" y="920" as="targetPoint"/>
          </mxGeometry>
        </mxCell>
        <mxCell id="N2AzNSkG_Cx-DgtH7He0-26" value="" style="endArrow=none;html=1;" edge="1" parent="1" source="1oXscA4LE7z4bwvGvyT2-4">
          <mxGeometry width="50" height="50" relative="1" as="geometry">
            <mxPoint x="450" y="60" as="sourcePoint"/>
            <mxPoint x="470" y="68" as="targetPoint"/>
          </mxGeometry>
        </mxCell>
        <mxCell id="N2AzNSkG_Cx-DgtH7He0-28" value="" style="endArrow=none;html=1;" edge="1" parent="1">
          <mxGeometry width="50" height="50" relative="1" as="geometry">
            <mxPoint x="656" y="67" as="sourcePoint"/>
            <mxPoint x="720" y="67" as="targetPoint"/>
          </mxGeometry>
        </mxCell>
        <mxCell id="N2AzNSkG_Cx-DgtH7He0-30" value="" style="endArrow=none;html=1;exitX=1;exitY=0.5;exitDx=0;exitDy=0;entryX=0.001;entryY=1.193;entryDx=0;entryDy=0;entryPerimeter=0;" edge="1" parent="1" source="1oXscA4LE7z4bwvGvyT2-39" target="B73v2lXdH34x8dakDg6a-10">
          <mxGeometry width="50" height="50" relative="1" as="geometry">
            <mxPoint x="930" y="70" as="sourcePoint"/>
            <mxPoint x="975.5" y="67" as="targetPoint"/>
          </mxGeometry>
        </mxCell>
        <mxCell id="N2AzNSkG_Cx-DgtH7He0-32" value="" style="endArrow=none;html=1;exitX=1.008;exitY=1.074;exitDx=0;exitDy=0;exitPerimeter=0;" edge="1" parent="1" source="B73v2lXdH34x8dakDg6a-10">
          <mxGeometry width="50" height="50" relative="1" as="geometry">
            <mxPoint x="1180" y="100" as="sourcePoint"/>
            <mxPoint x="1206" y="63" as="targetPoint"/>
          </mxGeometry>
        </mxCell>
      </root>
    </mxGraphModel>
  </diagram>
</mxfile>
